<svg
  xmlns="http://www.w3.org/2000/svg"
  viewBox="0 0 200 200"
  width="200"
  height="200"
>
  <!-- Potion Bottle -->
  <path
    d="M70 40 C70 25, 130 25, 130 40 L130 80 Q135 85, 135 120 C135 150, 115 170, 100 170 C85 170, 65 150, 65 120 Q65 85, 70 80 L70 40 Z"
    fill="#E9D5FF"
    stroke="#7E22CE"
    stroke-width="5"
  />
  <!-- Potion Liquid -->
  <path
    d="M70 80 Q75 85, 75 120 C75 145, 95 155, 100 155 C105 155, 125 145, 125 120 Q125 85, 130 80 Z"
    fill="#7E22CE"
  />
  <!-- Bottle Stopper -->
  <rect x="80" y="15" width="40" height="20" fill="#A0522D" stroke="#8B4513" stroke-width="3" rx="3" />
  
  <!-- Chat Bubble -->
  <path
    d="M50 120 C50 100, 90 100, 90 120 C90 135, 70 140, 70 140 L55 145 L60 135 C52 130, 50 127, 50 120 Z"
    fill="#E5E7EB"
    stroke="#000"
    stroke-width="3"
  />
  <!-- Bubble Text -->
  <circle cx="65" cy="118" r="2" fill="#000" />
  <circle cx="75" cy="118" r="2" fill="#000" />
  <circle cx="85" cy="118" r="2" fill="#000" />
</svg>
